<svg width="38" height="43" viewBox="0 0 38 43" fill="none" xmlns="http://www.w3.org/2000/svg">
<path fill-rule="evenodd" clip-rule="evenodd" d="M31.9721 42.9411C32.8594 42.9411 33.7319 42.7096 34.5071 42.2687C35.2965 41.8567 35.9629 41.2339 36.4354 40.4659C36.9148 39.6869 37.1764 38.7883 37.1919 37.8677L37.1922 37.8413L37.1922 5.0998L37.1919 5.07339C37.1764 4.15288 36.9148 3.25418 36.4354 2.47526C35.9629 1.7071 35.2965 1.08452 34.5071 0.672337C33.7319 0.231586 32.8594 0 31.9721 0C31.0723 0 30.1877 0.238033 29.4043 0.691376C29.387 0.701206 29.37 0.711651 29.3531 0.722401L3.46384 17.116C2.67874 17.5211 2.01604 18.1382 1.54744 18.9014C1.06414 19.6895 0.807339 20.6013 0.807339 21.532C0.807339 22.4627 1.06414 23.3745 1.54744 24.1626C2.01634 24.9265 2.68024 25.5442 3.46624 25.9493L29.3574 42.2215C29.3729 42.2312 29.3885 42.2406 29.4043 42.2498C30.1877 42.703 31.0723 42.9411 31.9721 42.9411Z" fill="#CDCDCD"/>
</svg>
