<svg width="42" height="43" viewBox="0 0 42 43" fill="none" xmlns="http://www.w3.org/2000/svg">
<path fill-rule="evenodd" clip-rule="evenodd" d="M8.02785 0.0588608C7.14057 0.0588608 6.26814 0.290408 5.49288 0.731344C4.70346 1.14334 4.03713 1.7661 3.56457 2.53406C3.0852 3.31305 2.82356 4.21169 2.80806 5.13226L2.80784 5.15871V37.9002L2.80806 37.9266C2.82356 38.8471 3.0852 39.7458 3.56457 40.5247C4.03713 41.2929 4.70346 41.9155 5.49288 42.3277C6.26814 42.7684 7.14057 43 8.02785 43C8.9277 43 9.81228 42.762 10.5957 42.3086C10.613 42.2988 10.63 42.2883 10.6469 42.2776L36.5362 25.884C37.3213 25.4789 37.984 24.8618 38.4526 24.0986C38.9359 23.3105 39.1927 22.3987 39.1927 21.468C39.1927 20.5373 38.9359 19.6255 38.4526 18.8374C37.9837 18.0735 37.3198 17.4558 36.5338 17.0507L10.6426 0.778497C10.6271 0.768791 10.6115 0.759371 10.5957 0.750242C9.81228 0.297026 8.9277 0.0588608 8.02785 0.0588608Z" fill="#CDCDCD"/>
</svg>
