<svg width="24" height="24" viewBox="0 0 24 24" fill="none" xmlns="http://www.w3.org/2000/svg">
<path d="M14 19V7M14 19H16M14 19H9M14 7C14 4.79086 12.2091 3 10 3H6C3.79086 3 2 4.79086 2 7V15C2 16.8652 3.27667 18.4323 5.00384 18.875M14 7H17.2091C17.7172 7 18.2063 7.1934 18.577 7.54093L21.3679 10.1574C21.7712 10.5355 22 11.0636 22 11.6165V17C22 18.1046 21.1046 19 20 19M20 19C20 20.1046 19.1046 21 18 21C16.8954 21 16 20.1046 16 19M20 19C20 17.8954 19.1046 17 18 17C16.8954 17 16 17.8954 16 19M9 19C9 20.1046 8.10457 21 7 21C5.89543 21 5 20.1046 5 19C5 18.958 5.00129 18.9163 5.00384 18.875M9 19C9 17.8954 8.10457 17 7 17C5.93742 17 5.06838 17.8286 5.00384 18.875" stroke="#141718" stroke-width="1.5"/>
<path d="M10 8L8 8" stroke="#141718" stroke-width="1.5" stroke-linecap="round" stroke-linejoin="round"/>
<path d="M10 12L6 12" stroke="#141718" stroke-width="1.5" stroke-linecap="round" stroke-linejoin="round"/>
</svg>
